<svg width="16" height="16" viewBox="0 0 16 16" fill="none" xmlns="http://www.w3.org/2000/svg">
<g clip-path="url(#clip0)">
<path fill-rule="evenodd" clip-rule="evenodd" d="M16 8C16 9.58225 15.5308 11.129 14.6518 12.4446C13.7727 13.7602 12.5233 14.7855 11.0615 15.391C9.59966 15.9965 7.99113 16.155 6.43928 15.8463C4.88743 15.5376 3.46197 14.7757 2.34315 13.6569C1.22433 12.538 0.462403 11.1126 0.153721 9.56072C-0.15496 8.00887 0.00346625 6.40034 0.608967 4.93853C1.21447 3.47672 2.23985 2.22729 3.55544 1.34824C4.87103 0.469192 6.41775 0 8 0C10.1198 0.00620496 12.1511 0.851052 13.65 2.35C15.149 3.84895 15.9938 5.88018 16 8Z" fill="url(#paint0_linear)"/>
<path fill-rule="evenodd" clip-rule="evenodd" d="M16 8C16 9.58225 15.5308 11.129 14.6518 12.4446C13.7727 13.7602 12.5233 14.7855 11.0615 15.391C9.59966 15.9965 7.99113 16.155 6.43928 15.8463C4.88743 15.5376 3.46197 14.7757 2.34315 13.6569C1.22433 12.538 0.462403 11.1126 0.153721 9.56072C-0.15496 8.00887 0.00346625 6.40034 0.608967 4.93853C1.21447 3.47672 2.23985 2.22729 3.55544 1.34824C4.87103 0.469192 6.41775 0 8 0C10.1198 0.00620496 12.1511 0.851052 13.65 2.35C15.149 3.84895 15.9938 5.88018 16 8Z" fill="url(#paint1_radial)"/>
<path fill-rule="evenodd" clip-rule="evenodd" d="M16 8C16 9.58225 15.5308 11.129 14.6518 12.4446C13.7727 13.7602 12.5233 14.7855 11.0615 15.391C9.59966 15.9965 7.99113 16.155 6.43928 15.8463C4.88743 15.5376 3.46197 14.7757 2.34315 13.6569C1.22433 12.538 0.462403 11.1126 0.153721 9.56072C-0.15496 8.00887 0.00346625 6.40034 0.608967 4.93853C1.21447 3.47672 2.23985 2.22729 3.55544 1.34824C4.87103 0.469192 6.41775 0 8 0C10.1198 0.00620496 12.1511 0.851052 13.65 2.35C15.149 3.84895 15.9938 5.88018 16 8Z" fill="url(#paint2_radial)"/>
<path fill-rule="evenodd" clip-rule="evenodd" d="M16 8C16 9.58225 15.5308 11.129 14.6518 12.4446C13.7727 13.7602 12.5233 14.7855 11.0615 15.391C9.59966 15.9965 7.99113 16.155 6.43928 15.8463C4.88743 15.5376 3.46197 14.7757 2.34315 13.6569C1.22433 12.538 0.462403 11.1126 0.153721 9.56072C-0.15496 8.00887 0.00346625 6.40034 0.608967 4.93853C1.21447 3.47672 2.23985 2.22729 3.55544 1.34824C4.87103 0.469192 6.41775 0 8 0C10.1198 0.00620496 12.1511 0.851052 13.65 2.35C15.149 3.84895 15.9938 5.88018 16 8Z" fill="url(#paint3_radial)"/>
<path fill-rule="evenodd" clip-rule="evenodd" d="M16 8C16 9.58225 15.5308 11.129 14.6518 12.4446C13.7727 13.7602 12.5233 14.7855 11.0615 15.391C9.59966 15.9965 7.99113 16.155 6.43928 15.8463C4.88743 15.5376 3.46197 14.7757 2.34315 13.6569C1.22433 12.538 0.462403 11.1126 0.153721 9.56072C-0.15496 8.00887 0.00346625 6.40034 0.608967 4.93853C1.21447 3.47672 2.23985 2.22729 3.55544 1.34824C4.87103 0.469192 6.41775 0 8 0C10.1198 0.00620496 12.1511 0.851052 13.65 2.35C15.149 3.84895 15.9938 5.88018 16 8Z" fill="url(#paint4_radial)"/>
<path fill-rule="evenodd" clip-rule="evenodd" d="M16 8C16 9.58225 15.5308 11.129 14.6518 12.4446C13.7727 13.7602 12.5233 14.7855 11.0615 15.391C9.59966 15.9965 7.99113 16.155 6.43928 15.8463C4.88743 15.5376 3.46197 14.7757 2.34315 13.6569C1.22433 12.538 0.462403 11.1126 0.153721 9.56072C-0.15496 8.00887 0.00346625 6.40034 0.608967 4.93853C1.21447 3.47672 2.23985 2.22729 3.55544 1.34824C4.87103 0.469192 6.41775 0 8 0C10.1198 0.00620496 12.1511 0.851052 13.65 2.35C15.149 3.84895 15.9938 5.88018 16 8Z" fill="url(#paint5_radial)"/>
<path fill-rule="evenodd" clip-rule="evenodd" d="M9.70049 5.8998C9.60049 5.5998 6.40049 5.5998 6.30049 5.8998C6.20049 6.1998 6.90049 6.5998 8.00049 6.5998C9.10049 6.5998 9.80049 6.1998 9.70049 5.8998Z" fill="url(#paint6_linear)"/>
<path fill-rule="evenodd" clip-rule="evenodd" d="M6.00039 4.1002C6.00039 4.8002 5.60039 5.0002 5.00039 5.1002C4.40039 5.2002 3.90039 4.9002 3.90039 4.1002C3.90039 3.5002 4.20039 2.7002 5.00039 2.7002C5.70039 2.7002 6.00039 3.5002 6.00039 4.1002Z" fill="url(#paint7_radial)"/>
<path fill-rule="evenodd" clip-rule="evenodd" d="M4.90019 3.10002C4.92815 3.13884 4.9478 3.18301 4.95793 3.22977C4.96805 3.27653 4.96844 3.32487 4.95905 3.37179C4.94967 3.4187 4.93072 3.46318 4.90339 3.50244C4.87606 3.54171 4.84093 3.57493 4.80019 3.60002C4.70019 3.70002 4.50019 3.80002 4.40019 3.60002C4.35127 3.52582 4.3252 3.43889 4.3252 3.35002C4.3252 3.26114 4.35127 3.17422 4.40019 3.10002C4.47402 3.05011 4.56109 3.02344 4.65019 3.02344C4.7393 3.02344 4.82637 3.05011 4.90019 3.10002V3.10002Z" fill="#4E506A"/>
<path fill-rule="evenodd" clip-rule="evenodd" d="M10 4.1002C10 4.8002 10.4 5.0002 11.1 5.1002C11.7 5.2002 12.2 4.9002 12.2 4.1002C12.2 3.5002 11.9 2.7002 11.1 2.7002C10.3 2.7002 10 3.5002 10 4.1002Z" fill="url(#paint8_radial)"/>
<path fill-rule="evenodd" clip-rule="evenodd" d="M11.0004 3.1002C11.1004 3.2002 11.0004 3.4002 10.9004 3.6002C10.845 3.64855 10.7739 3.67519 10.7004 3.67519C10.6269 3.67519 10.5558 3.64855 10.5004 3.6002C10.4004 3.5002 10.5004 3.3002 10.6004 3.1002C10.8004 2.9002 10.9004 2.9002 11.0004 3.1002Z" fill="#4E506A"/>
<path fill-rule="evenodd" clip-rule="evenodd" d="M3.39984 2.09984C3.19984 2.29984 3.39984 2.59984 3.69984 2.49984C4.57791 2.10563 5.5396 1.9339 6.49984 1.99984C6.79984 1.99984 6.89984 1.99984 6.79984 1.59984C6.79984 1.29984 6.39984 1.09984 5.59984 1.19984C4.78891 1.25592 4.01756 1.57147 3.39984 2.09984V2.09984Z" fill="url(#paint9_radial)"/>
<path fill-rule="evenodd" clip-rule="evenodd" d="M10.4006 1.19984C9.60059 1.09984 9.20059 1.29984 9.20059 1.59984C9.10059 1.99984 9.20059 1.99984 9.50059 1.99984C10.4618 1.91314 11.4288 2.08581 12.3006 2.49984C12.7006 2.69984 12.8006 2.29984 12.6006 2.09984C11.9829 1.57147 11.2115 1.25592 10.4006 1.19984V1.19984Z" fill="url(#paint10_radial)"/>
<path d="M4.29229 14.9161C4.17524 14.8799 4.06672 14.8204 3.97326 14.7412C3.87981 14.662 3.80335 14.5647 3.74848 14.4551C3.69362 14.3456 3.66149 14.226 3.65403 14.1038C3.64657 13.9815 3.66392 13.8589 3.70506 13.7435L5.75372 7.58424C5.78991 7.46719 5.84941 7.35868 5.92863 7.26523C6.00786 7.17178 6.10517 7.09533 6.21471 7.04047C6.32426 6.98561 6.44377 6.95348 6.56606 6.94602C6.68834 6.93856 6.81088 6.95592 6.92628 6.99705L10.0059 8.02133C10.123 8.05752 10.2315 8.11701 10.325 8.19624C10.4184 8.27546 10.4949 8.37277 10.5497 8.48232C10.6046 8.59187 10.6367 8.71138 10.6442 8.83367C10.6516 8.95596 10.6343 9.07849 10.5932 9.1939L8.5445 15.3532C8.50831 15.4702 8.44882 15.5788 8.3696 15.6722C8.29037 15.7657 8.19306 15.8421 8.08351 15.897C7.97397 15.9519 7.85445 15.984 7.73217 15.9915C7.60988 15.9989 7.48734 15.9816 7.37194 15.9404L4.29229 14.9161Z" fill="url(#paint11_linear)"/>
<path d="M4.21875 13.6695L8.1783 14.9865L10.0806 9.26719L6.12108 7.9502L4.21875 13.6695Z" fill="url(#paint12_linear)"/>
<path d="M6.31932 10.2527C6.18797 10.1493 6.0282 10.0884 5.86132 10.0781C5.13339 9.9921 4.37791 9.95003 4.10132 9.93582C4.27789 9.96362 4.45839 9.95299 4.63047 9.90466C4.80256 9.85632 4.96219 9.77141 5.09845 9.65573C5.13857 9.61696 5.52383 9.23548 5.37228 8.93567C5.32387 8.86552 5.26025 8.8072 5.18615 8.76507C5.11205 8.72294 5.0294 8.69809 4.94435 8.69236C4.89057 8.70552 4.81135 8.72347 4.71478 8.73992C4.10068 8.83518 3.47249 8.77491 2.88769 8.56464C2.55976 8.44516 2.24593 8.29004 1.95184 8.10208C1.75108 7.9428 1.5323 7.80767 1.29999 7.69947C1.05336 7.57151 0.769375 7.53504 0.498414 7.59654C0.00199383 7.81553 0.0816038 8.95247 0.0969938 9.17224C0.12828 9.79415 0.298131 10.4012 0.594135 10.9491C0.890139 11.4969 1.30481 11.9717 1.80785 12.3387C2.23237 12.6298 2.71504 12.8253 3.2225 12.9116C3.72996 12.9978 4.2501 12.9729 4.74696 12.8384C5.7505 12.508 6.56121 11.6746 6.51073 10.9789C6.50404 10.8867 6.56844 10.4647 6.31932 10.2527Z" fill="url(#paint13_linear)"/>
<path fill-rule="evenodd" clip-rule="evenodd" d="M1.30013 7.69977C0.800129 7.19977 -0.0998706 6.89977 -0.199871 8.09977C-0.236859 8.73526 -0.130208 9.37091 0.112162 9.95953C0.354533 10.5481 0.726394 11.0746 1.20013 11.4998C4.00013 13.6998 6.50013 12.4998 6.60013 10.8998C6.70013 9.69977 5.20013 9.79977 4.80013 9.79977V9.69977C4.90013 9.59977 5.10013 9.49977 5.20013 9.39977C5.60013 9.09977 5.40013 8.59977 4.90013 8.69977C4.21969 8.90926 3.49739 8.94365 2.80013 8.79977C2.00013 8.49977 1.90013 8.19977 1.30013 7.69977Z" fill="url(#paint14_radial)"/>
<path d="M15.1379 8.26757C15.0218 8.17174 14.9686 8.20557 14.7767 8.11277C14.4683 7.96366 14.4212 8.78728 14.3 8.80044C14.1268 8.81923 14.0558 8.19371 13.9775 8.44844C13.7828 9.01324 13.4351 9.5129 12.9732 9.89175C12.4258 10.3629 11.7557 10.6686 11.0411 10.7732C10.4508 10.7818 9.86056 10.7506 9.27442 10.6797C9.1679 10.6852 9.06655 10.7273 8.98749 10.7989C8.93828 10.8498 8.90349 10.9128 8.8867 10.9816C8.82447 11.2064 9.06827 11.4473 9.25383 11.6306C9.3583 11.7337 9.47447 11.8243 9.59997 11.9004C9.74118 11.9554 9.87909 12.0237 9.87173 12.0839C9.8514 12.2502 8.70056 11.9548 8.14888 12.5308C8.03378 12.6702 7.94914 12.8322 7.90043 13.0063C7.85172 13.1804 7.84 13.3628 7.86604 13.5417C7.93231 13.8361 8.06945 14.1099 8.26556 14.3392C8.46167 14.5686 8.71081 14.7466 8.99134 14.8578C9.46857 15.0648 9.99468 15.1325 10.5088 15.0529C11.6473 14.8448 12.7197 14.368 13.637 13.6621C14.4316 13.0673 14.829 10.7699 15.0943 10.195C15.4336 9.45974 15.4576 10.5264 15.4216 10.0994C15.362 9.7936 15.3446 9.48108 15.37 9.17057C15.4042 9.00896 15.4042 8.84198 15.37 8.68037C15.3396 8.52119 15.2581 8.37628 15.1379 8.26757V8.26757Z" fill="url(#paint15_linear)"/>
<path d="M14.2997 7.79963C14.5997 7.19963 15.0997 7.39963 15.3997 7.49963C15.6189 7.55117 15.8114 7.68161 15.9405 7.86606C16.0696 8.05051 16.1263 8.27605 16.0997 8.49963C16.1583 9.28095 16.0553 10.066 15.7973 10.8058C15.5392 11.5455 15.1316 12.2243 14.5997 12.7996C12.2997 15.3996 8.39971 14.9996 7.99971 13.3996C7.69971 12.1996 9.09971 11.9996 9.59971 11.9996V11.8996C9.39971 11.7996 9.29971 11.6996 9.09971 11.5996C8.69971 11.2996 8.79971 10.6996 9.29971 10.7996C9.9528 10.9649 10.6268 11.0323 11.2997 10.9996C13.1997 10.7996 13.4997 9.29963 14.2997 7.79963V7.79963Z" fill="url(#paint16_radial)"/>
</g>
<defs>
<linearGradient id="paint0_linear" x1="7.992" y1="15.2" x2="7.992" y2="1.184" gradientUnits="userSpaceOnUse">
<stop stop-color="#F28A2D"/>
<stop offset="1" stop-color="#FDE86F"/>
</linearGradient>
<radialGradient id="paint1_radial" cx="0" cy="0" r="1" gradientUnits="userSpaceOnUse" gradientTransform="translate(7.992 8) scale(8)">
<stop stop-color="#F28A2D" stop-opacity="0"/>
<stop offset="1" stop-color="#F08423" stop-opacity="0.34"/>
</radialGradient>
<radialGradient id="paint2_radial" cx="0" cy="0" r="1" gradientUnits="userSpaceOnUse" gradientTransform="translate(1.73567 8.32778) rotate(24.1484) scale(1.616 1.24996)">
<stop stop-color="#F28A2D" stop-opacity="0.5"/>
<stop offset="1" stop-color="#F28A2D" stop-opacity="0"/>
</radialGradient>
<radialGradient id="paint3_radial" cx="0" cy="0" r="1" gradientUnits="userSpaceOnUse" gradientTransform="translate(-16034.3 17532.4) rotate(-38.243) scale(72.4482 26.3573)">
<stop stop-color="#F28A2D" stop-opacity="0.5"/>
<stop offset="1" stop-color="#F28A2D" stop-opacity="0"/>
</radialGradient>
<radialGradient id="paint4_radial" cx="0" cy="0" r="1" gradientUnits="userSpaceOnUse" gradientTransform="translate(5.08919 2.03044) rotate(-10.3559) scale(1.712 0.340446)">
<stop stop-color="#D45F00" stop-opacity="0.15"/>
<stop offset="1" stop-color="#F28A2D" stop-opacity="0"/>
</radialGradient>
<radialGradient id="paint5_radial" cx="0" cy="0" r="1" gradientUnits="userSpaceOnUse" gradientTransform="translate(10.8798 2.14765) rotate(11.5352) scale(1.696 0.337278)">
<stop stop-color="#D45F00" stop-opacity="0.15"/>
<stop offset="1" stop-color="#D45F00" stop-opacity="0"/>
</radialGradient>
<linearGradient id="paint6_linear" x1="8.0006" y1="5.30908" x2="8.0006" y2="6.73299" gradientUnits="userSpaceOnUse">
<stop stop-color="#482314"/>
<stop offset="1" stop-color="#9A4111"/>
</linearGradient>
<radialGradient id="paint7_radial" cx="0" cy="0" r="1" gradientUnits="userSpaceOnUse" gradientTransform="translate(4.99237 4.27051) rotate(-90) scale(1.85963)">
<stop stop-color="#3B446B"/>
<stop offset="0.688" stop-color="#202340"/>
</radialGradient>
<radialGradient id="paint8_radial" cx="0" cy="0" r="1" gradientUnits="userSpaceOnUse" gradientTransform="translate(223.155 314.555) rotate(-90) scale(4.09118 4.49783)">
<stop stop-color="#3B446B"/>
<stop offset="0.688" stop-color="#202340"/>
</radialGradient>
<radialGradient id="paint9_radial" cx="0" cy="0" r="1" gradientUnits="userSpaceOnUse" gradientTransform="translate(5.00432 1.70973) rotate(-104.427) scale(0.405461 1.87948)">
<stop stop-color="#E38200"/>
<stop offset="1" stop-color="#CD6700"/>
</radialGradient>
<radialGradient id="paint10_radial" cx="0" cy="0" r="1" gradientUnits="userSpaceOnUse" gradientTransform="translate(32.9436 454.328) rotate(-79.0815) scale(1.51124 3.49993)">
<stop stop-color="#E38200"/>
<stop offset="1" stop-color="#CD6700"/>
</radialGradient>
<linearGradient id="paint11_linear" x1="9.61593" y1="6.46605" x2="2.55993" y2="20.777" gradientUnits="userSpaceOnUse">
<stop stop-color="#3B446B"/>
<stop offset="1" stop-color="#202340"/>
</linearGradient>
<linearGradient id="paint12_linear" x1="8.03151" y1="8.8427" x2="6.16551" y2="14.3997" gradientUnits="userSpaceOnUse">
<stop stop-color="#18AFFF"/>
<stop offset="1" stop-color="#0062DF"/>
</linearGradient>
<linearGradient id="paint13_linear" x1="8.29499" y1="10.9235" x2="1.88999" y2="10.2335" gradientUnits="userSpaceOnUse">
<stop stop-color="#9C0600"/>
<stop offset="1" stop-color="#9C0600" stop-opacity="0"/>
</linearGradient>
<radialGradient id="paint14_radial" cx="0" cy="0" r="1" gradientUnits="userSpaceOnUse" gradientTransform="translate(-0.0806018 7.47079) rotate(36.5187) scale(6.6485)">
<stop stop-color="#EDA83A"/>
<stop offset="1" stop-color="#FFDC5E"/>
</radialGradient>
<linearGradient id="paint15_linear" x1="-2.20046" y1="95.9456" x2="105.663" y2="87.6075" gradientUnits="userSpaceOnUse">
<stop stop-color="#9C0600"/>
<stop offset="1" stop-color="#9C0600" stop-opacity="0"/>
</linearGradient>
<radialGradient id="paint16_radial" cx="0" cy="0" r="1" gradientUnits="userSpaceOnUse" gradientTransform="translate(135.658 151.844) scale(72.1628 64.4854)">
<stop stop-color="#EDA83A"/>
<stop offset="1" stop-color="#FFDC5E"/>
</radialGradient>
<clipPath id="clip0">
<rect width="16" height="16" fill="white"/>
</clipPath>
</defs>
</svg>
