<svg width="274" height="386" viewBox="0 0 274 386" fill="none" xmlns="http://www.w3.org/2000/svg">
<g filter="url(#filter0_ii)">
<path fill-rule="evenodd" clip-rule="evenodd" d="M1 88.1937C1 87.8877 1.24816 87.6396 1.55443 87.6396H2.94385V114.02H1.55443C1.24823 114.02 1 113.772 1 113.466L1 88.1937Z" fill="#E1E1E1"/>
</g>
<path fill-rule="evenodd" clip-rule="evenodd" d="M1 88.1937C1 87.8877 1.24816 87.6396 1.55443 87.6396H2.94385V114.02H1.55443C1.24823 114.02 1 113.772 1 113.466L1 88.1937Z" stroke="#D2D2D2" stroke-width="0.694233"/>
<g filter="url(#filter1_ii)">
<path fill-rule="evenodd" clip-rule="evenodd" d="M1 121.24C1 120.934 1.24816 120.686 1.55443 120.686L2.94385 120.686V147.066H1.55443C1.24823 147.066 1 146.818 1 146.512V121.24Z" fill="#E1E1E1"/>
</g>
<path fill-rule="evenodd" clip-rule="evenodd" d="M1 121.24C1 120.934 1.24816 120.686 1.55443 120.686L2.94385 120.686V147.066H1.55443C1.24823 147.066 1 146.818 1 146.512V121.24Z" stroke="#D2D2D2" stroke-width="0.694233"/>
<g filter="url(#filter2_ii)">
<path fill-rule="evenodd" clip-rule="evenodd" d="M1 62.3695C1 62.0629 1.24816 61.8145 1.55443 61.8145H2.94385V76.2545H1.55443C1.24823 76.2545 1 76.0069 1 75.6995V62.3695Z" fill="#E1E1E1"/>
</g>
<path fill-rule="evenodd" clip-rule="evenodd" d="M1 62.3695C1 62.0629 1.24816 61.8145 1.55443 61.8145H2.94385V76.2545H1.55443C1.24823 76.2545 1 76.0069 1 75.6995V62.3695Z" stroke="#D2D2D2" stroke-width="0.694233"/>
<g filter="url(#filter3_ii)">
<path fill-rule="evenodd" clip-rule="evenodd" d="M180.251 95.9707H181.501C181.884 95.9707 182.195 96.2804 182.195 96.6642V138.32C182.195 138.703 181.885 139.013 181.501 139.013H180.251V95.9707Z" fill="#E1E1E1"/>
</g>
<path fill-rule="evenodd" clip-rule="evenodd" d="M180.251 95.9707H181.501C181.884 95.9707 182.195 96.2804 182.195 96.6642V138.32C182.195 138.703 181.885 139.013 181.501 139.013H180.251V95.9707Z" stroke="#D2D2D2" stroke-width="0.694233"/>
<g filter="url(#filter4_ii)">
<path fill-rule="evenodd" clip-rule="evenodd" d="M2.38867 40.8484C2.38867 25.5118 14.8217 13.0791 30.1593 13.0791H153.036C168.373 13.0791 180.807 25.5124 180.807 40.8484V346.033C180.807 361.37 168.373 373.802 153.036 373.802H30.1593C14.822 373.802 2.38867 361.369 2.38867 346.033V40.8484Z" fill="#E1E1E1"/>
</g>
<path fill-rule="evenodd" clip-rule="evenodd" d="M2.38867 40.8484C2.38867 25.5118 14.8217 13.0791 30.1593 13.0791H153.036C168.373 13.0791 180.807 25.5124 180.807 40.8484V346.033C180.807 361.37 168.373 373.802 153.036 373.802H30.1593C14.822 373.802 2.38867 361.369 2.38867 346.033V40.8484Z" stroke="#D2D2D2" stroke-width="0.694233"/>
<g filter="url(#filter5_ii)">
<path d="M5.44336 41.1269C5.44336 27.3236 16.6328 16.1338 30.4352 16.1338H152.76C166.563 16.1338 177.752 27.3231 177.752 41.1269V345.755C177.752 359.558 166.562 370.748 152.76 370.748H30.4352C16.6326 370.748 5.44336 359.559 5.44336 345.755V41.1269Z" fill="white"/>
<path d="M5.44336 41.1269C5.44336 27.3236 16.6328 16.1338 30.4352 16.1338H152.76C166.563 16.1338 177.752 27.3231 177.752 41.1269V345.755C177.752 359.558 166.562 370.748 152.76 370.748H30.4352C16.6326 370.748 5.44336 359.559 5.44336 345.755V41.1269Z" fill="url(#paint0_linear)"/>
</g>
<path fill-rule="evenodd" clip-rule="evenodd" d="M177.752 47.791H180.807V50.5679H177.752V47.791Z" fill="#D6D6D6"/>
<path fill-rule="evenodd" clip-rule="evenodd" d="M2.38867 47.791H5.4433V50.5679H2.38867V47.791Z" fill="#D6D6D6"/>
<path fill-rule="evenodd" clip-rule="evenodd" d="M177.752 336.592H180.807V339.369H177.752V336.592Z" fill="#D6D6D6"/>
<path fill-rule="evenodd" clip-rule="evenodd" d="M2.38867 336.592H5.4433V339.369H2.38867V336.592Z" fill="#D6D6D6"/>
<g filter="url(#filter6_i)">
<path fill-rule="evenodd" clip-rule="evenodd" d="M73.1994 29.7395C74.1196 29.7395 74.8655 28.9936 74.8655 28.0734C74.8655 27.1532 74.1196 26.4072 73.1994 26.4072C72.2792 26.4072 71.5332 27.1532 71.5332 28.0734C71.5332 28.9936 72.2792 29.7395 73.1994 29.7395Z" fill="#F0F0F0"/>
</g>
<g filter="url(#filter7_i)">
<path fill-rule="evenodd" clip-rule="evenodd" d="M73.1996 29.1844C73.8131 29.1844 74.3104 28.6871 74.3104 28.0737C74.3104 27.4602 73.8131 26.9629 73.1996 26.9629C72.5862 26.9629 72.0889 27.4602 72.0889 28.0737C72.0889 28.6871 72.5862 29.1844 73.1996 29.1844Z" fill="#D7D7D7"/>
</g>
<g filter="url(#filter8_i)">
<path fill-rule="evenodd" clip-rule="evenodd" d="M111.798 30.8507C113.332 30.8507 114.575 29.6075 114.575 28.0738C114.575 26.5401 113.332 25.2969 111.798 25.2969C110.265 25.2969 109.021 26.5401 109.021 28.0738C109.021 29.6075 110.265 30.8507 111.798 30.8507Z" fill="#F0F0F0"/>
</g>
<g filter="url(#filter9_i)">
<path fill-rule="evenodd" clip-rule="evenodd" d="M111.799 30.2956C113.026 30.2956 114.02 29.301 114.02 28.0741C114.02 26.8472 113.026 25.8525 111.799 25.8525C110.572 25.8525 109.577 26.8472 109.577 28.0741C109.577 29.301 110.572 30.2956 111.799 30.2956Z" fill="#D7D7D7"/>
</g>
<g filter="url(#filter10_i)">
<path fill-rule="evenodd" clip-rule="evenodd" d="M82.3637 26.9629H100.969C101.583 26.9629 102.08 27.4602 102.08 28.0737C102.08 28.6871 101.583 29.1844 100.969 29.1844H82.3637C81.7503 29.1844 81.2529 28.6871 81.2529 28.0737C81.2529 27.4602 81.7503 26.9629 82.3637 26.9629Z" fill="#F0F0F0"/>
</g>
<g filter="url(#filter11_i)">
<path fill-rule="evenodd" clip-rule="evenodd" d="M82.363 27.5186H100.968C101.275 27.5186 101.524 27.7672 101.524 28.0739C101.524 28.3807 101.275 28.6293 100.968 28.6293H82.363C82.0563 28.6293 81.8076 28.3807 81.8076 28.0739C81.8076 27.7672 82.0563 27.5186 82.363 27.5186Z" fill="#D7D7D7"/>
</g>
<path fill-rule="evenodd" clip-rule="evenodd" d="M45.5696 24.3256V24.3313C45.6154 24.3275 45.6617 24.3256 45.7085 24.3256C46.6289 24.3256 47.3747 25.072 47.3747 25.9928V26.8248C47.3747 32.3472 51.8569 36.8217 57.386 36.8217H125.809C131.337 36.8217 135.82 32.346 135.82 26.8248V24.3256H154.426C162.861 24.3256 169.698 31.1631 169.698 39.5987V347.283C169.698 355.718 162.861 362.556 154.426 362.556H28.769C20.334 362.556 13.4961 355.718 13.4961 347.283V39.5987C13.4961 31.1636 20.3336 24.3256 28.769 24.3256H45.5696ZM137.625 24.3309V24.3252H135.82V26.1307V25.9924C135.82 25.0716 136.566 24.3252 137.486 24.3252C137.533 24.3252 137.579 24.3271 137.625 24.3309Z" fill="#343A40"/>
<g filter="url(#filter12_ii)">
<path fill-rule="evenodd" clip-rule="evenodd" d="M92.7509 62.7139H93.6971V113.314H92.7509C92.2283 113.314 91.8047 112.891 91.8047 112.368V63.6597C91.8047 63.1373 92.2283 62.7139 92.7509 62.7139Z" fill="#E1E1E1"/>
</g>
<path fill-rule="evenodd" clip-rule="evenodd" d="M92.7509 62.7139H93.6971V113.314H92.7509C92.2283 113.314 91.8047 112.891 91.8047 112.368V63.6597C91.8047 63.1373 92.2283 62.7139 92.7509 62.7139Z" stroke="#D2D2D2" stroke-width="0.694233"/>
<g filter="url(#filter13_ii)">
<path fill-rule="evenodd" clip-rule="evenodd" d="M92.7509 132.229H93.6971V160.603H92.7509C92.2283 160.603 91.8047 160.18 91.8047 159.658V133.175C91.8047 132.653 92.2283 132.229 92.7509 132.229Z" fill="#E1E1E1"/>
</g>
<path fill-rule="evenodd" clip-rule="evenodd" d="M92.7509 132.229H93.6971V160.603H92.7509C92.2283 160.603 91.8047 160.18 91.8047 159.658V133.175C91.8047 132.653 92.2283 132.229 92.7509 132.229Z" stroke="#D2D2D2" stroke-width="0.694233"/>
<g filter="url(#filter14_ii)">
<path fill-rule="evenodd" clip-rule="evenodd" d="M271.107 103.146H272.054C272.576 103.146 273 103.57 273 104.092V131.047C273 131.57 272.576 131.993 272.054 131.993H271.107V103.146Z" fill="#E1E1E1"/>
</g>
<path fill-rule="evenodd" clip-rule="evenodd" d="M271.107 103.146H272.054C272.576 103.146 273 103.57 273 104.092V131.047C273 131.57 272.576 131.993 272.054 131.993H271.107V103.146Z" stroke="#D2D2D2" stroke-width="0.694233"/>
<g filter="url(#filter15_ii)">
<path fill-rule="evenodd" clip-rule="evenodd" d="M114.986 1H249.818C261.837 1 271.58 10.7393 271.58 22.7533V363.713C271.58 375.727 261.837 385.466 249.818 385.466H114.986C102.967 385.466 93.2236 375.727 93.2236 363.713V22.7533C93.2236 10.7393 102.967 1 114.986 1Z" fill="#E1E1E1"/>
</g>
<path fill-rule="evenodd" clip-rule="evenodd" d="M114.986 1H249.818C261.837 1 271.58 10.7393 271.58 22.7533V363.713C271.58 375.727 261.837 385.466 249.818 385.466H114.986C102.967 385.466 93.2236 375.727 93.2236 363.713V22.7533C93.2236 10.7393 102.967 1 114.986 1Z" stroke="#D2D2D2" stroke-width="0.694233"/>
<g filter="url(#filter16_ii)">
<path fill-rule="evenodd" clip-rule="evenodd" d="M113.567 3.36426H251.237C261.949 3.36426 270.634 12.0449 270.634 22.7531V363.713C270.634 374.421 261.949 383.101 251.237 383.101H113.567C102.854 383.101 94.1699 374.421 94.1699 363.713V22.7531C94.1699 12.0449 102.854 3.36426 113.567 3.36426Z" fill="white"/>
<path fill-rule="evenodd" clip-rule="evenodd" d="M113.567 3.36426H251.237C261.949 3.36426 270.634 12.0449 270.634 22.7531V363.713C270.634 374.421 261.949 383.101 251.237 383.101H113.567C102.854 383.101 94.1699 374.421 94.1699 363.713V22.7531C94.1699 12.0449 102.854 3.36426 113.567 3.36426Z" fill="url(#paint1_linear)"/>
</g>
<path fill-rule="evenodd" clip-rule="evenodd" d="M114.513 383.102H118.771V385.466H114.513V383.102Z" fill="#D0D0D0"/>
<path fill-rule="evenodd" clip-rule="evenodd" d="M246.033 383.102H250.291V385.466H246.033V383.102Z" fill="#D0D0D0"/>
<path fill-rule="evenodd" clip-rule="evenodd" d="M114.513 1H118.771V3.36449H114.513V1Z" fill="#D0D0D0"/>
<path fill-rule="evenodd" clip-rule="evenodd" d="M246.033 1H250.291V3.36449H246.033V1Z" fill="#D0D0D0"/>
<g filter="url(#filter17_i)">
<path fill-rule="evenodd" clip-rule="evenodd" d="M171.994 10.2217H193.283C194.197 10.2217 194.939 10.9627 194.939 11.8768C194.939 12.7909 194.197 13.532 193.283 13.532H171.994C171.079 13.532 170.338 12.7909 170.338 11.8768C170.338 10.9627 171.079 10.2217 171.994 10.2217Z" fill="#F0F0F0"/>
</g>
<g filter="url(#filter18_i)">
<path fill-rule="evenodd" clip-rule="evenodd" d="M171.993 11.168H193.282C193.674 11.168 193.992 11.4856 193.992 11.8773C193.992 12.2691 193.674 12.5867 193.282 12.5867H171.993C171.601 12.5867 171.283 12.2691 171.283 11.8773C171.283 11.4856 171.601 11.168 171.993 11.168Z" fill="#D7D7D7"/>
</g>
<g filter="url(#filter19_i)">
<path fill-rule="evenodd" clip-rule="evenodd" d="M215.518 16.3698C217.478 16.3698 219.066 14.7819 219.066 12.8231C219.066 10.8643 217.478 9.27637 215.518 9.27637C213.558 9.27637 211.97 10.8643 211.97 12.8231C211.97 14.7819 213.558 16.3698 215.518 16.3698Z" fill="#F0F0F0"/>
</g>
<g filter="url(#filter20_i)">
<path fill-rule="evenodd" clip-rule="evenodd" d="M215.518 15.4236C216.955 15.4236 218.12 14.2591 218.12 12.8226C218.12 11.3862 216.955 10.2217 215.518 10.2217C214.081 10.2217 212.916 11.3862 212.916 12.8226C212.916 14.2591 214.081 15.4236 215.518 15.4236Z" fill="#D7D7D7"/>
</g>
<path fill-rule="evenodd" clip-rule="evenodd" d="M110.492 19.6797H254.312C261.628 19.6797 267.559 25.6079 267.559 32.9208V356.383C267.559 363.696 261.628 369.624 254.312 369.624H110.492C103.176 369.624 97.2451 363.696 97.2451 356.383V32.9208C97.2451 25.6079 103.176 19.6797 110.492 19.6797Z" fill="#343A40"/>
<g opacity="0.300045">
<path fill-rule="evenodd" clip-rule="evenodd" d="M113.567 3.36426H251.237C261.949 3.36426 270.634 12.0449 270.634 22.7531V363.713C270.634 374.421 261.949 383.101 251.237 383.101H113.567C102.854 383.101 94.1699 374.421 94.1699 363.713V22.7531C94.1699 12.0449 102.854 3.36426 113.567 3.36426Z" fill="url(#paint2_linear)"/>
<path fill-rule="evenodd" clip-rule="evenodd" d="M113.567 3.36426H251.237C261.949 3.36426 270.634 12.0449 270.634 22.7531V363.713C270.634 374.421 261.949 383.101 251.237 383.101H113.567C102.854 383.101 94.1699 374.421 94.1699 363.713V22.7531C94.1699 12.0449 102.854 3.36426 113.567 3.36426Z" fill="url(#paint3_linear)"/>
</g>
<defs>
<filter id="filter0_ii" x="0.65332" y="87.293" width="2.63808" height="27.7693" filterUnits="userSpaceOnUse" color-interpolation-filters="sRGB">
<feFlood flood-opacity="0" result="BackgroundImageFix"/>
<feBlend mode="normal" in="SourceGraphic" in2="BackgroundImageFix" result="shape"/>
<feColorMatrix in="SourceAlpha" type="matrix" values="0 0 0 0 0 0 0 0 0 0 0 0 0 0 0 0 0 0 127 0" result="hardAlpha"/>
<feOffset dy="0.694233"/>
<feGaussianBlur stdDeviation="6.94233"/>
<feComposite in2="hardAlpha" operator="arithmetic" k2="-1" k3="1"/>
<feColorMatrix type="matrix" values="0 0 0 0 0 0 0 0 0 0 0 0 0 0 0 0 0 0 0.2 0"/>
<feBlend mode="normal" in2="shape" result="effect1_innerShadow"/>
<feColorMatrix in="SourceAlpha" type="matrix" values="0 0 0 0 0 0 0 0 0 0 0 0 0 0 0 0 0 0 127 0" result="hardAlpha"/>
<feOffset dy="0.694233"/>
<feGaussianBlur stdDeviation="3.47116"/>
<feComposite in2="hardAlpha" operator="arithmetic" k2="-1" k3="1"/>
<feColorMatrix type="matrix" values="0 0 0 0 1 0 0 0 0 1 0 0 0 0 1 0 0 0 1 0"/>
<feBlend mode="normal" in2="effect1_innerShadow" result="effect2_innerShadow"/>
</filter>
<filter id="filter1_ii" x="0.65332" y="120.339" width="2.63808" height="27.7693" filterUnits="userSpaceOnUse" color-interpolation-filters="sRGB">
<feFlood flood-opacity="0" result="BackgroundImageFix"/>
<feBlend mode="normal" in="SourceGraphic" in2="BackgroundImageFix" result="shape"/>
<feColorMatrix in="SourceAlpha" type="matrix" values="0 0 0 0 0 0 0 0 0 0 0 0 0 0 0 0 0 0 127 0" result="hardAlpha"/>
<feOffset dy="0.694233"/>
<feGaussianBlur stdDeviation="6.94233"/>
<feComposite in2="hardAlpha" operator="arithmetic" k2="-1" k3="1"/>
<feColorMatrix type="matrix" values="0 0 0 0 0 0 0 0 0 0 0 0 0 0 0 0 0 0 0.2 0"/>
<feBlend mode="normal" in2="shape" result="effect1_innerShadow"/>
<feColorMatrix in="SourceAlpha" type="matrix" values="0 0 0 0 0 0 0 0 0 0 0 0 0 0 0 0 0 0 127 0" result="hardAlpha"/>
<feOffset dy="0.694233"/>
<feGaussianBlur stdDeviation="3.47116"/>
<feComposite in2="hardAlpha" operator="arithmetic" k2="-1" k3="1"/>
<feColorMatrix type="matrix" values="0 0 0 0 1 0 0 0 0 1 0 0 0 0 1 0 0 0 1 0"/>
<feBlend mode="normal" in2="effect1_innerShadow" result="effect2_innerShadow"/>
</filter>
<filter id="filter2_ii" x="0.65332" y="61.4678" width="2.63808" height="15.8285" filterUnits="userSpaceOnUse" color-interpolation-filters="sRGB">
<feFlood flood-opacity="0" result="BackgroundImageFix"/>
<feBlend mode="normal" in="SourceGraphic" in2="BackgroundImageFix" result="shape"/>
<feColorMatrix in="SourceAlpha" type="matrix" values="0 0 0 0 0 0 0 0 0 0 0 0 0 0 0 0 0 0 127 0" result="hardAlpha"/>
<feOffset dy="0.694233"/>
<feGaussianBlur stdDeviation="6.94233"/>
<feComposite in2="hardAlpha" operator="arithmetic" k2="-1" k3="1"/>
<feColorMatrix type="matrix" values="0 0 0 0 0 0 0 0 0 0 0 0 0 0 0 0 0 0 0.2 0"/>
<feBlend mode="normal" in2="shape" result="effect1_innerShadow"/>
<feColorMatrix in="SourceAlpha" type="matrix" values="0 0 0 0 0 0 0 0 0 0 0 0 0 0 0 0 0 0 127 0" result="hardAlpha"/>
<feOffset dy="0.694233"/>
<feGaussianBlur stdDeviation="3.47116"/>
<feComposite in2="hardAlpha" operator="arithmetic" k2="-1" k3="1"/>
<feColorMatrix type="matrix" values="0 0 0 0 1 0 0 0 0 1 0 0 0 0 1 0 0 0 1 0"/>
<feBlend mode="normal" in2="effect1_innerShadow" result="effect2_innerShadow"/>
</filter>
<filter id="filter3_ii" x="179.904" y="95.624" width="2.63808" height="44.4309" filterUnits="userSpaceOnUse" color-interpolation-filters="sRGB">
<feFlood flood-opacity="0" result="BackgroundImageFix"/>
<feBlend mode="normal" in="SourceGraphic" in2="BackgroundImageFix" result="shape"/>
<feColorMatrix in="SourceAlpha" type="matrix" values="0 0 0 0 0 0 0 0 0 0 0 0 0 0 0 0 0 0 127 0" result="hardAlpha"/>
<feOffset dy="0.694233"/>
<feGaussianBlur stdDeviation="6.94233"/>
<feComposite in2="hardAlpha" operator="arithmetic" k2="-1" k3="1"/>
<feColorMatrix type="matrix" values="0 0 0 0 0 0 0 0 0 0 0 0 0 0 0 0 0 0 0.2 0"/>
<feBlend mode="normal" in2="shape" result="effect1_innerShadow"/>
<feColorMatrix in="SourceAlpha" type="matrix" values="0 0 0 0 0 0 0 0 0 0 0 0 0 0 0 0 0 0 127 0" result="hardAlpha"/>
<feOffset dy="0.694233"/>
<feGaussianBlur stdDeviation="3.47116"/>
<feComposite in2="hardAlpha" operator="arithmetic" k2="-1" k3="1"/>
<feColorMatrix type="matrix" values="0 0 0 0 1 0 0 0 0 1 0 0 0 0 1 0 0 0 1 0"/>
<feBlend mode="normal" in2="effect1_innerShadow" result="effect2_innerShadow"/>
</filter>
<filter id="filter4_ii" x="2.04199" y="12.7324" width="179.112" height="362.112" filterUnits="userSpaceOnUse" color-interpolation-filters="sRGB">
<feFlood flood-opacity="0" result="BackgroundImageFix"/>
<feBlend mode="normal" in="SourceGraphic" in2="BackgroundImageFix" result="shape"/>
<feColorMatrix in="SourceAlpha" type="matrix" values="0 0 0 0 0 0 0 0 0 0 0 0 0 0 0 0 0 0 127 0" result="hardAlpha"/>
<feOffset dy="0.694233"/>
<feGaussianBlur stdDeviation="6.94233"/>
<feComposite in2="hardAlpha" operator="arithmetic" k2="-1" k3="1"/>
<feColorMatrix type="matrix" values="0 0 0 0 0 0 0 0 0 0 0 0 0 0 0 0 0 0 0.2 0"/>
<feBlend mode="normal" in2="shape" result="effect1_innerShadow"/>
<feColorMatrix in="SourceAlpha" type="matrix" values="0 0 0 0 0 0 0 0 0 0 0 0 0 0 0 0 0 0 127 0" result="hardAlpha"/>
<feOffset dy="0.694233"/>
<feGaussianBlur stdDeviation="3.47116"/>
<feComposite in2="hardAlpha" operator="arithmetic" k2="-1" k3="1"/>
<feColorMatrix type="matrix" values="0 0 0 0 1 0 0 0 0 1 0 0 0 0 1 0 0 0 1 0"/>
<feBlend mode="normal" in2="effect1_innerShadow" result="effect2_innerShadow"/>
</filter>
<filter id="filter5_ii" x="5.44336" y="16.1338" width="172.309" height="361.556" filterUnits="userSpaceOnUse" color-interpolation-filters="sRGB">
<feFlood flood-opacity="0" result="BackgroundImageFix"/>
<feBlend mode="normal" in="SourceGraphic" in2="BackgroundImageFix" result="shape"/>
<feColorMatrix in="SourceAlpha" type="matrix" values="0 0 0 0 0 0 0 0 0 0 0 0 0 0 0 0 0 0 127 0" result="hardAlpha"/>
<feOffset dy="0.694233"/>
<feGaussianBlur stdDeviation="20.827"/>
<feComposite in2="hardAlpha" operator="arithmetic" k2="-1" k3="1"/>
<feColorMatrix type="matrix" values="0 0 0 0 0 0 0 0 0 0 0 0 0 0 0 0 0 0 0.1 0"/>
<feBlend mode="normal" in2="shape" result="effect1_innerShadow"/>
<feColorMatrix in="SourceAlpha" type="matrix" values="0 0 0 0 0 0 0 0 0 0 0 0 0 0 0 0 0 0 127 0" result="hardAlpha"/>
<feOffset dy="6.94233"/>
<feGaussianBlur stdDeviation="13.8847"/>
<feComposite in2="hardAlpha" operator="arithmetic" k2="-1" k3="1"/>
<feColorMatrix type="matrix" values="0 0 0 0 1 0 0 0 0 1 0 0 0 0 1 0 0 0 1 0"/>
<feBlend mode="normal" in2="effect1_innerShadow" result="effect2_innerShadow"/>
</filter>
<filter id="filter6_i" x="71.5332" y="26.4072" width="3.33232" height="4.02655" filterUnits="userSpaceOnUse" color-interpolation-filters="sRGB">
<feFlood flood-opacity="0" result="BackgroundImageFix"/>
<feBlend mode="normal" in="SourceGraphic" in2="BackgroundImageFix" result="shape"/>
<feColorMatrix in="SourceAlpha" type="matrix" values="0 0 0 0 0 0 0 0 0 0 0 0 0 0 0 0 0 0 127 0" result="hardAlpha"/>
<feOffset dy="0.694233"/>
<feGaussianBlur stdDeviation="1.04135"/>
<feComposite in2="hardAlpha" operator="arithmetic" k2="-1" k3="1"/>
<feColorMatrix type="matrix" values="0 0 0 0 0 0 0 0 0 0 0 0 0 0 0 0 0 0 0.05 0"/>
<feBlend mode="normal" in2="shape" result="effect1_innerShadow"/>
</filter>
<filter id="filter7_i" x="72.0889" y="26.9629" width="2.22154" height="2.91578" filterUnits="userSpaceOnUse" color-interpolation-filters="sRGB">
<feFlood flood-opacity="0" result="BackgroundImageFix"/>
<feBlend mode="normal" in="SourceGraphic" in2="BackgroundImageFix" result="shape"/>
<feColorMatrix in="SourceAlpha" type="matrix" values="0 0 0 0 0 0 0 0 0 0 0 0 0 0 0 0 0 0 127 0" result="hardAlpha"/>
<feOffset dy="0.694233"/>
<feGaussianBlur stdDeviation="1.04135"/>
<feComposite in2="hardAlpha" operator="arithmetic" k2="-1" k3="1"/>
<feColorMatrix type="matrix" values="0 0 0 0 1 0 0 0 0 1 0 0 0 0 1 0 0 0 0.363734 0"/>
<feBlend mode="normal" in2="shape" result="effect1_innerShadow"/>
</filter>
<filter id="filter8_i" x="109.021" y="25.2969" width="5.55387" height="6.24809" filterUnits="userSpaceOnUse" color-interpolation-filters="sRGB">
<feFlood flood-opacity="0" result="BackgroundImageFix"/>
<feBlend mode="normal" in="SourceGraphic" in2="BackgroundImageFix" result="shape"/>
<feColorMatrix in="SourceAlpha" type="matrix" values="0 0 0 0 0 0 0 0 0 0 0 0 0 0 0 0 0 0 127 0" result="hardAlpha"/>
<feOffset dy="0.694233"/>
<feGaussianBlur stdDeviation="1.04135"/>
<feComposite in2="hardAlpha" operator="arithmetic" k2="-1" k3="1"/>
<feColorMatrix type="matrix" values="0 0 0 0 0 0 0 0 0 0 0 0 0 0 0 0 0 0 0.05 0"/>
<feBlend mode="normal" in2="shape" result="effect1_innerShadow"/>
</filter>
<filter id="filter9_i" x="109.577" y="25.8525" width="4.4431" height="5.13732" filterUnits="userSpaceOnUse" color-interpolation-filters="sRGB">
<feFlood flood-opacity="0" result="BackgroundImageFix"/>
<feBlend mode="normal" in="SourceGraphic" in2="BackgroundImageFix" result="shape"/>
<feColorMatrix in="SourceAlpha" type="matrix" values="0 0 0 0 0 0 0 0 0 0 0 0 0 0 0 0 0 0 127 0" result="hardAlpha"/>
<feOffset dy="0.694233"/>
<feGaussianBlur stdDeviation="1.04135"/>
<feComposite in2="hardAlpha" operator="arithmetic" k2="-1" k3="1"/>
<feColorMatrix type="matrix" values="0 0 0 0 1 0 0 0 0 1 0 0 0 0 1 0 0 0 0.363734 0"/>
<feBlend mode="normal" in2="shape" result="effect1_innerShadow"/>
</filter>
<filter id="filter10_i" x="81.2529" y="26.9629" width="20.827" height="2.91578" filterUnits="userSpaceOnUse" color-interpolation-filters="sRGB">
<feFlood flood-opacity="0" result="BackgroundImageFix"/>
<feBlend mode="normal" in="SourceGraphic" in2="BackgroundImageFix" result="shape"/>
<feColorMatrix in="SourceAlpha" type="matrix" values="0 0 0 0 0 0 0 0 0 0 0 0 0 0 0 0 0 0 127 0" result="hardAlpha"/>
<feOffset dy="0.694233"/>
<feGaussianBlur stdDeviation="1.04135"/>
<feComposite in2="hardAlpha" operator="arithmetic" k2="-1" k3="1"/>
<feColorMatrix type="matrix" values="0 0 0 0 0 0 0 0 0 0 0 0 0 0 0 0 0 0 0.05 0"/>
<feBlend mode="normal" in2="shape" result="effect1_innerShadow"/>
</filter>
<filter id="filter11_i" x="81.8076" y="27.5186" width="19.7162" height="1.805" filterUnits="userSpaceOnUse" color-interpolation-filters="sRGB">
<feFlood flood-opacity="0" result="BackgroundImageFix"/>
<feBlend mode="normal" in="SourceGraphic" in2="BackgroundImageFix" result="shape"/>
<feColorMatrix in="SourceAlpha" type="matrix" values="0 0 0 0 0 0 0 0 0 0 0 0 0 0 0 0 0 0 127 0" result="hardAlpha"/>
<feOffset dy="0.694233"/>
<feGaussianBlur stdDeviation="1.04135"/>
<feComposite in2="hardAlpha" operator="arithmetic" k2="-1" k3="1"/>
<feColorMatrix type="matrix" values="0 0 0 0 1 0 0 0 0 1 0 0 0 0 1 0 0 0 0.363734 0"/>
<feBlend mode="normal" in2="shape" result="effect1_innerShadow"/>
</filter>
<filter id="filter12_ii" x="91.458" y="62.3672" width="2.58661" height="51.9886" filterUnits="userSpaceOnUse" color-interpolation-filters="sRGB">
<feFlood flood-opacity="0" result="BackgroundImageFix"/>
<feBlend mode="normal" in="SourceGraphic" in2="BackgroundImageFix" result="shape"/>
<feColorMatrix in="SourceAlpha" type="matrix" values="0 0 0 0 0 0 0 0 0 0 0 0 0 0 0 0 0 0 127 0" result="hardAlpha"/>
<feOffset dy="0.694233"/>
<feGaussianBlur stdDeviation="6.94233"/>
<feComposite in2="hardAlpha" operator="arithmetic" k2="-1" k3="1"/>
<feColorMatrix type="matrix" values="0 0 0 0 0 0 0 0 0 0 0 0 0 0 0 0 0 0 0.2 0"/>
<feBlend mode="normal" in2="shape" result="effect1_innerShadow"/>
<feColorMatrix in="SourceAlpha" type="matrix" values="0 0 0 0 0 0 0 0 0 0 0 0 0 0 0 0 0 0 127 0" result="hardAlpha"/>
<feOffset dy="0.694233"/>
<feGaussianBlur stdDeviation="3.47116"/>
<feComposite in2="hardAlpha" operator="arithmetic" k2="-1" k3="1"/>
<feColorMatrix type="matrix" values="0 0 0 0 1 0 0 0 0 1 0 0 0 0 1 0 0 0 1 0"/>
<feBlend mode="normal" in2="effect1_innerShadow" result="effect2_innerShadow"/>
</filter>
<filter id="filter13_ii" x="91.458" y="131.883" width="2.58661" height="29.7623" filterUnits="userSpaceOnUse" color-interpolation-filters="sRGB">
<feFlood flood-opacity="0" result="BackgroundImageFix"/>
<feBlend mode="normal" in="SourceGraphic" in2="BackgroundImageFix" result="shape"/>
<feColorMatrix in="SourceAlpha" type="matrix" values="0 0 0 0 0 0 0 0 0 0 0 0 0 0 0 0 0 0 127 0" result="hardAlpha"/>
<feOffset dy="0.694233"/>
<feGaussianBlur stdDeviation="6.94233"/>
<feComposite in2="hardAlpha" operator="arithmetic" k2="-1" k3="1"/>
<feColorMatrix type="matrix" values="0 0 0 0 0 0 0 0 0 0 0 0 0 0 0 0 0 0 0.2 0"/>
<feBlend mode="normal" in2="shape" result="effect1_innerShadow"/>
<feColorMatrix in="SourceAlpha" type="matrix" values="0 0 0 0 0 0 0 0 0 0 0 0 0 0 0 0 0 0 127 0" result="hardAlpha"/>
<feOffset dy="0.694233"/>
<feGaussianBlur stdDeviation="3.47116"/>
<feComposite in2="hardAlpha" operator="arithmetic" k2="-1" k3="1"/>
<feColorMatrix type="matrix" values="0 0 0 0 1 0 0 0 0 1 0 0 0 0 1 0 0 0 1 0"/>
<feBlend mode="normal" in2="effect1_innerShadow" result="effect2_innerShadow"/>
</filter>
<filter id="filter14_ii" x="270.761" y="102.8" width="2.58661" height="30.2353" filterUnits="userSpaceOnUse" color-interpolation-filters="sRGB">
<feFlood flood-opacity="0" result="BackgroundImageFix"/>
<feBlend mode="normal" in="SourceGraphic" in2="BackgroundImageFix" result="shape"/>
<feColorMatrix in="SourceAlpha" type="matrix" values="0 0 0 0 0 0 0 0 0 0 0 0 0 0 0 0 0 0 127 0" result="hardAlpha"/>
<feOffset dy="0.694233"/>
<feGaussianBlur stdDeviation="6.94233"/>
<feComposite in2="hardAlpha" operator="arithmetic" k2="-1" k3="1"/>
<feColorMatrix type="matrix" values="0 0 0 0 0 0 0 0 0 0 0 0 0 0 0 0 0 0 0.2 0"/>
<feBlend mode="normal" in2="shape" result="effect1_innerShadow"/>
<feColorMatrix in="SourceAlpha" type="matrix" values="0 0 0 0 0 0 0 0 0 0 0 0 0 0 0 0 0 0 127 0" result="hardAlpha"/>
<feOffset dy="0.694233"/>
<feGaussianBlur stdDeviation="3.47116"/>
<feComposite in2="hardAlpha" operator="arithmetic" k2="-1" k3="1"/>
<feColorMatrix type="matrix" values="0 0 0 0 1 0 0 0 0 1 0 0 0 0 1 0 0 0 1 0"/>
<feBlend mode="normal" in2="effect1_innerShadow" result="effect2_innerShadow"/>
</filter>
<filter id="filter15_ii" x="92.877" y="0.65332" width="179.05" height="385.855" filterUnits="userSpaceOnUse" color-interpolation-filters="sRGB">
<feFlood flood-opacity="0" result="BackgroundImageFix"/>
<feBlend mode="normal" in="SourceGraphic" in2="BackgroundImageFix" result="shape"/>
<feColorMatrix in="SourceAlpha" type="matrix" values="0 0 0 0 0 0 0 0 0 0 0 0 0 0 0 0 0 0 127 0" result="hardAlpha"/>
<feOffset dy="0.694233"/>
<feGaussianBlur stdDeviation="6.94233"/>
<feComposite in2="hardAlpha" operator="arithmetic" k2="-1" k3="1"/>
<feColorMatrix type="matrix" values="0 0 0 0 0 0 0 0 0 0 0 0 0 0 0 0 0 0 0.2 0"/>
<feBlend mode="normal" in2="shape" result="effect1_innerShadow"/>
<feColorMatrix in="SourceAlpha" type="matrix" values="0 0 0 0 0 0 0 0 0 0 0 0 0 0 0 0 0 0 127 0" result="hardAlpha"/>
<feOffset dy="0.694233"/>
<feGaussianBlur stdDeviation="3.47116"/>
<feComposite in2="hardAlpha" operator="arithmetic" k2="-1" k3="1"/>
<feColorMatrix type="matrix" values="0 0 0 0 1 0 0 0 0 1 0 0 0 0 1 0 0 0 1 0"/>
<feBlend mode="normal" in2="effect1_innerShadow" result="effect2_innerShadow"/>
</filter>
<filter id="filter16_ii" x="94.1699" y="3.36426" width="176.464" height="386.679" filterUnits="userSpaceOnUse" color-interpolation-filters="sRGB">
<feFlood flood-opacity="0" result="BackgroundImageFix"/>
<feBlend mode="normal" in="SourceGraphic" in2="BackgroundImageFix" result="shape"/>
<feColorMatrix in="SourceAlpha" type="matrix" values="0 0 0 0 0 0 0 0 0 0 0 0 0 0 0 0 0 0 127 0" result="hardAlpha"/>
<feOffset dy="0.694233"/>
<feGaussianBlur stdDeviation="20.827"/>
<feComposite in2="hardAlpha" operator="arithmetic" k2="-1" k3="1"/>
<feColorMatrix type="matrix" values="0 0 0 0 0 0 0 0 0 0 0 0 0 0 0 0 0 0 0.1 0"/>
<feBlend mode="normal" in2="shape" result="effect1_innerShadow"/>
<feColorMatrix in="SourceAlpha" type="matrix" values="0 0 0 0 0 0 0 0 0 0 0 0 0 0 0 0 0 0 127 0" result="hardAlpha"/>
<feOffset dy="6.94233"/>
<feGaussianBlur stdDeviation="13.8847"/>
<feComposite in2="hardAlpha" operator="arithmetic" k2="-1" k3="1"/>
<feColorMatrix type="matrix" values="0 0 0 0 1 0 0 0 0 1 0 0 0 0 1 0 0 0 1 0"/>
<feBlend mode="normal" in2="effect1_innerShadow" result="effect2_innerShadow"/>
</filter>
<filter id="filter17_i" x="170.338" y="10.2217" width="24.6008" height="4.00452" filterUnits="userSpaceOnUse" color-interpolation-filters="sRGB">
<feFlood flood-opacity="0" result="BackgroundImageFix"/>
<feBlend mode="normal" in="SourceGraphic" in2="BackgroundImageFix" result="shape"/>
<feColorMatrix in="SourceAlpha" type="matrix" values="0 0 0 0 0 0 0 0 0 0 0 0 0 0 0 0 0 0 127 0" result="hardAlpha"/>
<feOffset dy="0.694233"/>
<feGaussianBlur stdDeviation="1.04135"/>
<feComposite in2="hardAlpha" operator="arithmetic" k2="-1" k3="1"/>
<feColorMatrix type="matrix" values="0 0 0 0 0 0 0 0 0 0 0 0 0 0 0 0 0 0 0.05 0"/>
<feBlend mode="normal" in2="shape" result="effect1_innerShadow"/>
</filter>
<filter id="filter18_i" x="171.283" y="11.168" width="22.7085" height="2.11293" filterUnits="userSpaceOnUse" color-interpolation-filters="sRGB">
<feFlood flood-opacity="0" result="BackgroundImageFix"/>
<feBlend mode="normal" in="SourceGraphic" in2="BackgroundImageFix" result="shape"/>
<feColorMatrix in="SourceAlpha" type="matrix" values="0 0 0 0 0 0 0 0 0 0 0 0 0 0 0 0 0 0 127 0" result="hardAlpha"/>
<feOffset dy="0.694233"/>
<feGaussianBlur stdDeviation="1.04135"/>
<feComposite in2="hardAlpha" operator="arithmetic" k2="-1" k3="1"/>
<feColorMatrix type="matrix" values="0 0 0 0 1 0 0 0 0 1 0 0 0 0 1 0 0 0 0.363734 0"/>
<feBlend mode="normal" in2="shape" result="effect1_innerShadow"/>
</filter>
<filter id="filter19_i" x="211.97" y="9.27637" width="7.09637" height="7.7877" filterUnits="userSpaceOnUse" color-interpolation-filters="sRGB">
<feFlood flood-opacity="0" result="BackgroundImageFix"/>
<feBlend mode="normal" in="SourceGraphic" in2="BackgroundImageFix" result="shape"/>
<feColorMatrix in="SourceAlpha" type="matrix" values="0 0 0 0 0 0 0 0 0 0 0 0 0 0 0 0 0 0 127 0" result="hardAlpha"/>
<feOffset dy="0.694233"/>
<feGaussianBlur stdDeviation="1.04135"/>
<feComposite in2="hardAlpha" operator="arithmetic" k2="-1" k3="1"/>
<feColorMatrix type="matrix" values="0 0 0 0 0 0 0 0 0 0 0 0 0 0 0 0 0 0 0.05 0"/>
<feBlend mode="normal" in2="shape" result="effect1_innerShadow"/>
</filter>
<filter id="filter20_i" x="212.916" y="10.2217" width="5.20402" height="5.89611" filterUnits="userSpaceOnUse" color-interpolation-filters="sRGB">
<feFlood flood-opacity="0" result="BackgroundImageFix"/>
<feBlend mode="normal" in="SourceGraphic" in2="BackgroundImageFix" result="shape"/>
<feColorMatrix in="SourceAlpha" type="matrix" values="0 0 0 0 0 0 0 0 0 0 0 0 0 0 0 0 0 0 127 0" result="hardAlpha"/>
<feOffset dy="0.694233"/>
<feGaussianBlur stdDeviation="1.04135"/>
<feComposite in2="hardAlpha" operator="arithmetic" k2="-1" k3="1"/>
<feColorMatrix type="matrix" values="0 0 0 0 1 0 0 0 0 1 0 0 0 0 1 0 0 0 0.363734 0"/>
<feBlend mode="normal" in2="shape" result="effect1_innerShadow"/>
</filter>
<linearGradient id="paint0_linear" x1="-80.7109" y1="193.441" x2="198.082" y2="328.908" gradientUnits="userSpaceOnUse">
<stop stop-color="white" stop-opacity="0.01"/>
<stop offset="1" stop-opacity="0.03"/>
</linearGradient>
<linearGradient id="paint1_linear" x1="5.93803" y1="193.233" x2="296.187" y2="328.112" gradientUnits="userSpaceOnUse">
<stop stop-color="white" stop-opacity="0.01"/>
<stop offset="1" stop-opacity="0.03"/>
</linearGradient>
<linearGradient id="paint2_linear" x1="270.634" y1="163.14" x2="242.666" y2="163.14" gradientUnits="userSpaceOnUse">
<stop stop-opacity="0.315529"/>
<stop offset="1" stop-color="white" stop-opacity="0.01"/>
</linearGradient>
<linearGradient id="paint3_linear" x1="94.1699" y1="217.715" x2="123.879" y2="217.715" gradientUnits="userSpaceOnUse">
<stop stop-opacity="0.277825"/>
<stop offset="1" stop-color="white" stop-opacity="0.01"/>
</linearGradient>
</defs>
</svg>
