<svg width="32" height="32" viewBox="0 0 32 32" fill="none" xmlns="http://www.w3.org/2000/svg">
<path d="M31.1576 12.2379C31.1576 8.3078 28.5184 6.73643 25.2628 6.73643C23.8978 6.73643 22.4965 7.03454 21.3252 7.60127C19.8085 6.56633 18.025 5.94654 15.9997 5.94654C13.9744 5.94654 12.1908 6.56633 10.6742 7.60127C9.50285 7.03454 8.10159 6.73643 6.73653 6.73643C3.48095 6.73643 0.841797 8.3078 0.841797 12.2379C0.841797 15.475 2.6338 17.6417 5.08432 18.3061C5.04811 18.7575 5.02706 19.2097 5.02706 19.6627C5.02706 24.4872 8.83253 26.1259 12.2532 26.675C13.1778 27.3571 14.5108 27.7891 15.9997 27.7891C17.4885 27.7891 18.8216 27.3571 19.7462 26.675C23.1668 26.1259 26.9723 24.488 26.9723 19.6627C26.9723 19.2097 26.9513 18.7575 26.9151 18.3061C29.3656 17.6417 31.1576 15.475 31.1576 12.2379Z" fill="url(#paint0_linear)"/>
<path d="M8.88732 9.14007C8.61953 9.11228 8.3509 9.09459 8.08395 9.09459C5.47932 9.09459 3.36816 10.3519 3.36816 13.4954C3.36816 15.3102 4.07385 16.7022 5.16859 17.5586C5.5669 14.3603 6.85616 11.3127 8.88732 9.14007Z" fill="#6EA8FE"/>
<path d="M23.9155 9.09459C23.6486 9.09459 23.3791 9.11228 23.1113 9.14007C25.1425 11.3127 26.4317 14.3603 26.8301 17.5586C27.9256 16.7022 28.6313 15.3102 28.6313 13.4963C28.6313 10.3527 26.5202 9.09459 23.9155 9.09459Z" fill="#6EA8FE"/>
<path d="M19.1382 21.7317C19.1382 24.5494 17.6831 25.2627 15.9989 25.2627C14.3147 25.2627 12.8604 24.5494 12.8604 21.7317C12.8604 18.9149 14.3147 16.6311 15.9989 16.6311C17.6831 16.6311 19.1382 18.9149 19.1382 21.7317Z" fill="#F8F9FA"/>
<path d="M12.6318 17.5786C12.6318 18.2759 12.0667 18.8418 11.3686 18.8418C10.6705 18.8418 10.1055 18.2759 10.1055 17.5786C10.1055 16.8814 10.6705 16.3155 11.3686 16.3155C12.0667 16.3155 12.6318 16.8814 12.6318 17.5786Z" fill="#F8F9FA"/>
<path d="M21.8945 17.5786C21.8945 18.2759 21.3286 18.8418 20.6313 18.8418C19.9341 18.8418 19.3682 18.2759 19.3682 17.5786C19.3682 16.8814 19.9341 16.3155 20.6313 16.3155C21.3286 16.3155 21.8945 16.8814 21.8945 17.5786Z" fill="#F8F9FA"/>
<defs>
<linearGradient id="paint0_linear" x1="23.6663" y1="27.9995" x2="1.66634" y2="5.99951" gradientUnits="userSpaceOnUse">
<stop stop-color="#73ABFF"/>
<stop offset="0.515625" stop-color="#0067FF"/>
<stop offset="1" stop-color="#0067FF"/>
</linearGradient>
</defs>
</svg>
