<svg width="48" height="48" viewBox="0 0 48 48" fill="none" xmlns="http://www.w3.org/2000/svg">
<path d="M46.7364 18.3578C46.7364 12.4627 42.7776 10.1056 37.8943 10.1056C35.8467 10.1056 33.7448 10.5528 31.9877 11.4029C29.7128 9.85046 27.0374 8.92078 23.9995 8.92078C20.9616 8.92078 18.2863 9.85046 16.0113 11.4029C14.2543 10.5528 12.1524 10.1056 10.1048 10.1056C5.22143 10.1056 1.2627 12.4627 1.2627 18.3578C1.2627 23.2134 3.9507 26.4635 7.62648 27.4601C7.57217 28.1372 7.54059 28.8155 7.54059 29.4951C7.54059 36.7317 13.2488 39.1898 18.3797 40.0134C19.7667 41.0366 21.7663 41.6846 23.9995 41.6846C26.2328 41.6846 28.2324 41.0366 29.6193 40.0134C34.7503 39.1898 40.4585 36.733 40.4585 29.4951C40.4585 28.8155 40.4269 28.1372 40.3726 27.4601C44.0484 26.4635 46.7364 23.2134 46.7364 18.3578Z" fill="url(#paint0_linear)"/>
<path d="M13.3305 13.7111C12.9288 13.6694 12.5259 13.6429 12.1254 13.6429C8.21849 13.6429 5.05176 15.5288 5.05176 20.2441C5.05176 22.9662 6.11028 25.0542 7.75239 26.3389C8.34986 21.5414 10.2838 16.97 13.3305 13.7111Z" fill="#6EA8FE"/>
<path d="M35.8733 13.6429C35.4729 13.6429 35.0687 13.6694 34.667 13.7111C37.7137 16.97 39.6476 21.5414 40.2451 26.3389C41.8885 25.0542 42.947 22.9662 42.947 20.2454C42.947 15.53 39.7803 13.6429 35.8733 13.6429Z" fill="#6EA8FE"/>
<path d="M28.7069 32.5991C28.7069 36.8256 26.5241 37.8955 23.9978 37.8955C21.4715 37.8955 19.29 36.8256 19.29 32.5991C19.29 28.3738 21.4715 24.9481 23.9978 24.9481C26.5241 24.9481 28.7069 28.3738 28.7069 32.5991Z" fill="#E9ECEF"/>
<path d="M18.9467 26.3689C18.9467 27.4148 18.0991 28.2637 17.052 28.2637C16.0048 28.2637 15.1572 27.4148 15.1572 26.3689C15.1572 25.323 16.0048 24.4742 17.052 24.4742C18.0991 24.4742 18.9467 25.323 18.9467 26.3689Z" fill="#E9ECEF"/>
<path d="M32.8412 26.3689C32.8412 27.4148 31.9924 28.2637 30.9465 28.2637C29.9006 28.2637 29.0518 27.4148 29.0518 26.3689C29.0518 25.323 29.9006 24.4742 30.9465 24.4742C31.9924 24.4742 32.8412 25.323 32.8412 26.3689Z" fill="#E9ECEF"/>
<defs>
<linearGradient id="paint0_linear" x1="35.4995" y1="42.0002" x2="2.49951" y2="9.00025" gradientUnits="userSpaceOnUse">
<stop stop-color="#73ABFF"/>
<stop offset="0.515625" stop-color="#0067FF"/>
<stop offset="1" stop-color="#0067FF"/>
</linearGradient>
</defs>
</svg>
